<svg width="1200" height="700" viewBox="0 0 1200 700" fill="none" xmlns="http://www.w3.org/2000/svg">
  <rect width="1200" height="700" fill="#F7F3EB"/>
  <rect x="72" y="72" width="1056" height="556" rx="34" fill="white" fill-opacity="0.88" stroke="#14202B14"/>
  <text x="112" y="130" fill="#0F5D76" font-family="Segoe UI, sans-serif" font-size="18" letter-spacing="3">ORDER SCREEN ENHANCEMENT</text>
  <text x="112" y="176" fill="#14202B" font-family="Segoe UI, sans-serif" font-size="42" font-weight="700">Fulfillment risk indicator</text>
  <rect x="112" y="238" width="976" height="92" rx="24" fill="#F7FAFC"/>
  <rect x="112" y="354" width="976" height="92" rx="24" fill="#F7FAFC"/>
  <rect x="112" y="470" width="976" height="92" rx="24" fill="#F7FAFC"/>
  <text x="150" y="294" fill="#14202B" font-family="Segoe UI, sans-serif" font-size="26" font-weight="700">#3104</text>
  <text x="150" y="410" fill="#14202B" font-family="Segoe UI, sans-serif" font-size="26" font-weight="700">#3110</text>
  <text x="150" y="526" fill="#14202B" font-family="Segoe UI, sans-serif" font-size="26" font-weight="700">#3098</text>
  <rect x="482" y="259" width="140" height="38" rx="19" fill="#FEE2E2"/>
  <rect x="482" y="375" width="140" height="38" rx="19" fill="#FFF0DA"/>
  <rect x="482" y="491" width="140" height="38" rx="19" fill="#DFF6E8"/>
  <text x="515" y="284" fill="#B42318" font-family="Segoe UI, sans-serif" font-size="18" font-weight="700">78 · High</text>
  <text x="505" y="400" fill="#A55A06" font-family="Segoe UI, sans-serif" font-size="18" font-weight="700">66 · Watch</text>
  <text x="506" y="516" fill="#0A7A45" font-family="Segoe UI, sans-serif" font-size="18" font-weight="700">34 · Stable</text>
  <text x="690" y="284" fill="#526374" font-family="Segoe UI, sans-serif" font-size="18">Missing shipping details · Long-unfulfilled</text>
  <text x="690" y="400" fill="#526374" font-family="Segoe UI, sans-serif" font-size="18">Failed payment · Retry behavior</text>
  <text x="690" y="516" fill="#526374" font-family="Segoe UI, sans-serif" font-size="18">Recovered after manual note</text>
</svg>